<svg xmlns="http://www.w3.org/2000/svg" width="78" height="30" viewBox="0 0 78.016 29.996">
  <g id="logo" transform="translate(-54 -20)">
    <g id="Groupe_3" data-name="Groupe 3" transform="translate(54 20)">
      <g id="Groupe_2" data-name="Groupe 2">
        <path id="Tracé_1" data-name="Tracé 1" d="M18.551,2.52a1.629,1.629,0,0,1-.106.3c-.216.388-.424.832-.657,1.194a3.853,3.853,0,0,1-.365.6c-.034.166-.526,1.042-.636,1.429a6.333,6.333,0,0,1-.763,1.307,2.4,2.4,0,0,1-.848.763c-.195.209-.424.41-.636.619-.055.087.055.144.085.187a4.473,4.473,0,0,1,.716.667,3.754,3.754,0,0,1,.538.567,5.838,5.838,0,0,1,.657.8,8.989,8.989,0,0,1,.526.841,7.782,7.782,0,0,1,.4.693c.259.044.424-.244.526-.4a7.626,7.626,0,0,0,.894-.8c1.208-1.15,2.272-2.227,3.48-3.312a1.635,1.635,0,0,1,.538-.436.351.351,0,0,1,.14.231c-.042.279-.085.553-.14.806-.259.8-.56,1.508-.848,2.279-.064.209-.182.375-.259.575a2.4,2.4,0,0,0-.237.4c-.127.131-.161.366-.259.519-.174.078-.182.266-.28.436a4.781,4.781,0,0,1-.356.553c-.246.253-.848.741-.848.741a6.755,6.755,0,0,1-1.412.7,2.251,2.251,0,0,1-.538.2c-.4,0-.763.044-1.183.078-.119.035-.377,0-.424.131a8.708,8.708,0,0,0-.216,1.351,4.352,4.352,0,0,0-.021.532c-.064.366-.085.763-.119,1.15,0,.087-.119,1.717-.225,2.4-.034.109,0,.266-.064.375-.021.475-.055.963-.064,1.395s-.14.776-.174,1.129a2.674,2.674,0,0,0-.259,1.028c-.064.1-.127.244-.259.266a.389.389,0,0,1-.161.035c-.085-.035-.1-.087-.14-.166-.127-.54-.314-1.063-.475-1.56-.055-.179-.085-.388-.153-.588a3.986,3.986,0,0,1-.28-1.451,18.1,18.1,0,0,1-.182-2.423c.021-.475-.021-.954,0-1.429s.14-1.028.182-1.551a6.668,6.668,0,0,0,.106-1.743c-.034-.222-.085-.2-.106-.331s-.225-.253-.322-.436a18.669,18.669,0,0,1-2.035-1.917,2.5,2.5,0,0,1-.246-.144c-.322.179-.623.436-.95.619A15.558,15.558,0,0,0,8.063,13.18a4.254,4.254,0,0,1-1.183.7c-.153.1-.322.179-.475.266a20.03,20.03,0,0,0-2.23,0,2.027,2.027,0,0,1-.424,0,.828.828,0,0,1-.246-.187.484.484,0,0,1,.2-.3A4.823,4.823,0,0,0,5.168,13.1a2.886,2.886,0,0,0,.958-.61,1.219,1.219,0,0,1,.314-.266c.119-.279.424-.436.593-.7.237-.41.593-.662.848-1.063A10.853,10.853,0,0,1,9.153,9.175a5.784,5.784,0,0,1,1.1-.331,19.608,19.608,0,0,0,1.852-.662,11.766,11.766,0,0,0,.776-.9c.678-.754,1.539-1.207,2.327-1.961.365-.388.733-.9,1.077-1.307.28-.436.784-1.072,1.183-1.595h-.517a14.8,14.8,0,0,0-14.6,14.986A15.178,15.178,0,0,0,7.457,28.82c.085-.109.153-.209.182-.244-.424-1.338-1.356-2.392-1.42-3.774a21.722,21.722,0,0,1-.119-3A10.654,10.654,0,0,1,6.652,19a31.119,31.119,0,0,1,2.5-3.743L9.2,15.21a1,1,0,0,1,.475.187c.064.065,0,.187.064.253,0,0-.055.322-.085.436a5.692,5.692,0,0,0-.174.632,2.939,2.939,0,0,0-.424.819l-.042.144c-.246.8-.67,1.56-.848,2.371a6.911,6.911,0,0,0-.055,1.416q-.025.5,0,1a7.99,7.99,0,0,0,.28,1.395c.119.253.161.436.28.732a15.184,15.184,0,0,0,.475,1.451c.034.087.076.488.335.567a4.218,4.218,0,0,0,.742,0,1.374,1.374,0,0,0,.67.065,25.048,25.048,0,0,0,3.285.078c.526-.087,1.013-.179,1.551-.253.4.035.848,0,1.272,0a4.571,4.571,0,0,1,.763-.065c.322.044.733-.1,1.034,0a12.192,12.192,0,0,0,1.539.1c.064,0,.055.087.055.131-.161.078,0,.253-.119.366-.742.375-1.5.662-2.208,1.007l-.055.057c-.517.353-1.174.366-1.657.732a.827.827,0,0,1-.424.044,3.348,3.348,0,0,0-.755.244c-1.161.231-2.327.488-3.489.7-.034.022-.3.187-.343.322-.064.035-.042.144-.106.187a2.552,2.552,0,0,0-.136.841,14.283,14.283,0,0,0,15.574-2.58,15.967,15.967,0,0,0-.322-1.743c-.526-.872-.848-1.743-1.356-2.615-.119-.436-.386-.8-.5-1.242-.127-.144-.161-.436-.3-.575-.424-.035-.848.109-1.272.109a2.485,2.485,0,0,1-.572.231c-.195-.044-.424.057-.6,0-.377.057-1.356.157-1.475.187-.4.057-.848.1-1.238.187-.182,0-.271.057-.483.065a5.254,5.254,0,0,1-.666-.074,8.173,8.173,0,0,1-.873.109c-.076-.065-.2-.144-.2-.253s-.085-.179,0-.231c.28-.057.5-.253.784-.309.076-.078.424-.065.4-.122a11.3,11.3,0,0,0,1.852-.71c.182-.022.335-.144.526-.166.8-.3,1.53-.675,2.336-.976a32.678,32.678,0,0,0,3.048-1.194.838.838,0,0,0,.538-.253,5.239,5.239,0,0,0,.551-.928c.365-.436.483-1.02.958-1.408.14-.209.2-.436.365-.641a1.94,1.94,0,0,0-.246-.872,9.852,9.852,0,0,1-.721-1.229,5.17,5.17,0,0,1-.8-2.249c-.174-.3-.5-.4-.721-.654h-.034a3.021,3.021,0,0,1-.424-.375,3.454,3.454,0,0,1-.67-.763,1.066,1.066,0,0,1-.335-.719c.386-.078.755,0,1.119-.057.153.065.335-.035.483.044a2.552,2.552,0,0,1,.454.776c1.043,1.551,2.306,2.789,3.361,4.262.2.122.106.436.195.6.085.388.119.8.174,1.172a14.876,14.876,0,0,1-.106,2.292s-.174,1.782-.28,2.593c-.161.654-.127,1.364-.322,2.026-.085.41-.237.872-.322,1.286.034.187-.153.309-.1.54a3.148,3.148,0,0,0,.67.331A15.2,15.2,0,0,0,24.452,4.532,14.283,14.283,0,0,0,18.551,2.52ZM11.484,5.2c.182-.109.343.087.517.122a2.734,2.734,0,0,1,.314.806c.174.266-.042.532-.042.832-.085.2-.216.4-.314.575-.195.1-.365.3-.593.157-.064.022-.225-.057-.259-.057-.2-.157-.6-.078-.623-.436-.042-.51-.322-.906-.365-1.416C10.4,5.287,11.077,5.444,11.484,5.2Zm.67,18.39a7.574,7.574,0,0,0-.475,1.042c0,.1-.1.087-.161.131a.29.29,0,0,1-.259.131c-.182-.1-.343.065-.5-.087a1.723,1.723,0,0,1-.4-.806,3.444,3.444,0,0,1,.076-1.364,3.964,3.964,0,0,1,.335-.806c.055-.131.085-.279.237-.331.064-.057.14-.044.195-.078.2,0,.424-.157.623.078.034.131.14.187.2.322a11.566,11.566,0,0,1,.28,1.216A3.363,3.363,0,0,0,12.154,23.591Zm12.352-9.343.055.044c.271.131.538.144.81.266a1.2,1.2,0,0,1,.721.662c.055.279.064.6.1.872,0,.436.335,1.185-.314,1.386a2.19,2.19,0,0,1-.937-.309,1.108,1.108,0,0,1-.424-.279c-.475-.244-.377-.841-.581-1.251-.021-.288-.085-.6-.127-.9a.634.634,0,0,1,.085-.366A.574.574,0,0,1,24.506,14.247Z" transform="translate(-2.349 -2.42)" fill="#3305d4"/>
        <path id="Tracé_2" data-name="Tracé 2" d="M86.76,32.3h1.454v1.534a3.39,3.39,0,0,1-1.573.335,2.337,2.337,0,0,1-2.336-2.543,2.314,2.314,0,0,1,2.17-2.45c.055,0,.11,0,.165,0a2.6,2.6,0,0,1,1.789.67l.064.064,1.077-1.089-.076-.068a4.125,4.125,0,0,0-2.866-.916,3.683,3.683,0,0,0-3.845,3.514q-.008.172,0,.343A3.669,3.669,0,0,0,86.629,35.5a6.227,6.227,0,0,0,2.967-.712l.055-.034V30.961H86.76Zm6.473-.055H96.5V30.906H93.233V29.354h3.434V28.019H91.775V35.31h5.087V33.962h-3.62V32.241Zm9.025-4.417h-.085a3.683,3.683,0,0,0-3.845,3.514q-.008.172,0,.343a3.669,3.669,0,0,0,3.845,3.815h0a3.694,3.694,0,0,0,3.879-3.815,3.664,3.664,0,0,0-3.794-3.857Zm-.076,6.32A2.494,2.494,0,1,1,104.53,31.4c0,.066,0,.133,0,.2a2.35,2.35,0,0,1-2.348,2.548Zm8.571-6.138h-2.9V35.3H110.6a3.68,3.68,0,0,0,3.857-3.65,3.49,3.49,0,0,0-3.7-3.641Zm-.593,5.956h-.848V29.346h1.055c1.174,0,2.573.4,2.573,2.306,0,2.086-1.946,2.31-2.777,2.31Zm6.074,1.348h1.454V28.019h-1.454Zm6.248-4.383c-.7-.225-1.272-.424-1.272-.95,0-.6.551-.818,1.068-.818a1.4,1.4,0,0,1,1.161.517l.064.1,1.068-1.132-.076-.064a3.031,3.031,0,0,0-2.119-.755c-1.348,0-2.713.691-2.713,2.238s1.14,1.865,2.056,2.166c.7.225,1.314.424,1.314,1.034s-.593.873-1.14.873a1.572,1.572,0,0,1-1.293-.7l-.064-.1-1.1,1.068.055.064a3.043,3.043,0,0,0,2.378,1c1.636,0,2.692-.928,2.692-2.357.03-1.509-1.132-1.886-2.081-2.187Z" transform="translate(-46.556 -16.643)" fill="#3305d4"/>
      </g>
    </g>
  </g>
</svg>
