<svg xmlns="http://www.w3.org/2000/svg" width="182" height="186.733" viewBox="0 0 182 186.733">
  <path id="Tracé_1" data-name="Tracé 1" d="M103.206,3.044a10.139,10.139,0,0,1-.66,1.872c-1.346,2.414-2.639,5.182-4.09,7.433a23.983,23.983,0,0,1-2.269,3.717c-.211,1.031-3.272,6.484-3.958,8.9a39.425,39.425,0,0,1-4.75,8.139A14.954,14.954,0,0,1,82.2,37.85c-1.214,1.3-2.639,2.55-3.958,3.852-.343.543.343.9.528,1.167a27.848,27.848,0,0,1,4.46,4.151,23.369,23.369,0,0,1,3.351,3.527,36.343,36.343,0,0,1,4.09,4.992,55.958,55.958,0,0,1,3.272,5.236,48.451,48.451,0,0,1,2.48,4.313c1.61.271,2.639-1.519,3.272-2.469a47.473,47.473,0,0,0,5.568-4.965c7.521-7.162,14.144-13.863,21.665-20.618a10.179,10.179,0,0,1,3.351-2.713,2.187,2.187,0,0,1,.871,1.438c-.264,1.736-.528,3.445-.871,5.019-1.61,4.965-3.483,9.387-5.278,14.188-.4,1.3-1.135,2.333-1.61,3.581a14.938,14.938,0,0,0-1.478,2.469c-.792.814-1,2.279-1.61,3.228-1.082.488-1.135,1.655-1.742,2.713a29.767,29.767,0,0,1-2.217,3.445c-1.531,1.573-5.278,4.612-5.278,4.612a42.054,42.054,0,0,1-8.787,4.341A14.015,14.015,0,0,1,98.932,80.6c-2.48,0-4.75.271-7.362.488-.739.217-2.349,0-2.639.814a54.211,54.211,0,0,0-1.346,8.41,27.092,27.092,0,0,0-.132,3.31c-.4,2.279-.528,4.748-.739,7.162,0,.543-.739,10.689-1.4,14.948-.211.678,0,1.655-.4,2.333-.132,2.957-.343,6-.4,8.681s-.871,4.829-1.082,7.026a16.645,16.645,0,0,0-1.61,6.4c-.4.624-.792,1.519-1.61,1.655a2.419,2.419,0,0,1-1,.217c-.528-.217-.607-.543-.871-1.031-.792-3.364-1.953-6.619-2.955-9.712-.343-1.112-.528-2.414-.95-3.662a24.815,24.815,0,0,1-1.742-9.034,112.666,112.666,0,0,1-1.135-15.084c.132-2.957-.132-5.941,0-8.9s.871-6.4,1.135-9.658,1.346-7.515.66-10.851c-.211-1.384-.528-1.248-.66-2.062s-1.4-1.573-2.005-2.713A116.217,116.217,0,0,1,58.03,57.41a15.539,15.539,0,0,1-1.531-.9c-2.005,1.112-3.879,2.713-5.911,3.852A96.848,96.848,0,0,0,37.923,69.4c-2.4,1.384-4.565,3.8-7.362,4.341-.95.624-2.005,1.112-2.955,1.655a124.686,124.686,0,0,0-13.88,0,12.615,12.615,0,0,1-2.639,0,5.152,5.152,0,0,1-1.53-1.167,3.01,3.01,0,0,1,1.267-1.872A30.025,30.025,0,0,0,19.9,68.885a17.965,17.965,0,0,0,5.964-3.8,7.588,7.588,0,0,1,1.953-1.655c.739-1.736,2.639-2.713,3.694-4.341,1.478-2.55,3.694-4.124,5.278-6.619a67.563,67.563,0,0,1,7.916-8,36.008,36.008,0,0,1,6.861-2.062c3.826-1.384,7.784-2.333,11.532-4.124A73.243,73.243,0,0,0,67.926,32.7C72.148,28,77.5,25.181,82.413,20.488c2.269-2.414,4.565-5.589,6.7-8.139C90.857,9.636,94,5.675,96.477,2.42H93.258C43.095,2.374,2.394,44.144,2.349,95.713a94.487,94.487,0,0,0,31.8,71.053c.528-.678.95-1.3,1.135-1.519-2.639-8.329-8.444-14.894-8.84-23.493a135.226,135.226,0,0,1-.739-18.692,66.324,66.324,0,0,1,3.43-17.444,193.724,193.724,0,0,1,15.543-23.3l.343-.271a6.22,6.22,0,0,1,2.955,1.167c.4.407,0,1.167.4,1.573,0,0-.343,2.008-.528,2.713a35.434,35.434,0,0,0-1.082,3.934,18.3,18.3,0,0,0-2.639,5.1l-.264.9c-1.531,4.965-4.169,9.712-5.278,14.758A43.024,43.024,0,0,0,38.239,121q-.154,3.1,0,6.212a49.741,49.741,0,0,0,1.742,8.681c.739,1.573,1,2.713,1.742,4.558a94.521,94.521,0,0,0,2.955,9.034c.211.543.475,3.038,2.085,3.527a26.261,26.261,0,0,0,4.618,0,8.551,8.551,0,0,0,4.169.407A155.933,155.933,0,0,0,76,153.907c3.272-.543,6.307-1.112,9.658-1.573,2.48.217,5.278,0,7.916,0a28.451,28.451,0,0,1,4.75-.407c2.006.271,4.565-.624,6.439,0a75.891,75.891,0,0,0,9.579.624c.4,0,.343.543.343.814-1,.488,0,1.573-.739,2.279-4.618,2.333-9.315,4.124-13.748,6.267l-.343.353c-3.219,2.2-7.309,2.279-10.318,4.558a5.15,5.15,0,0,1-2.639.271,20.842,20.842,0,0,0-4.7,1.519c-7.23,1.438-14.487,3.038-21.717,4.341-.211.136-1.874,1.167-2.137,2.008-.4.217-.264.9-.66,1.167a15.887,15.887,0,0,0-.844,5.236,88.916,88.916,0,0,0,96.949-16.06,99.4,99.4,0,0,0-2.006-10.852c-3.272-5.426-5.278-10.851-8.444-16.277-.739-2.713-2.4-4.965-3.14-7.732-.792-.9-1-2.713-1.874-3.581-2.639-.217-5.278.678-7.916.678a15.472,15.472,0,0,1-3.562,1.438c-1.214-.271-2.639.353-3.747,0-2.349.353-8.444.977-9.183,1.167-2.48.353-5.278.624-7.705,1.167-1.135,0-1.689.353-3.008.407a32.706,32.706,0,0,1-4.143-.461,50.874,50.874,0,0,1-5.436.678c-.475-.407-1.267-.9-1.267-1.573s-.528-1.112,0-1.438c1.742-.353,3.14-1.573,4.882-1.926.475-.488,2.639-.407,2.48-.76,3.826-1.655,8.1-2.143,11.532-4.422,1.135-.136,2.085-.9,3.272-1.031,4.961-1.872,9.526-4.2,14.54-6.077,6.834-1.655,12.481-5.182,18.973-7.433a5.219,5.219,0,0,0,3.351-1.573,32.616,32.616,0,0,0,3.43-5.778c2.269-2.713,3.008-6.348,5.964-8.763.871-1.3,1.267-2.713,2.269-3.988a12.076,12.076,0,0,0-1.531-5.426,61.334,61.334,0,0,1-4.486-7.65,32.187,32.187,0,0,1-4.961-14c-1.082-1.872-3.087-2.469-4.486-4.069h-.211a18.806,18.806,0,0,1-2.639-2.333,21.5,21.5,0,0,1-4.169-4.748,6.635,6.635,0,0,1-2.085-4.476c2.4-.488,4.7,0,6.966-.353.95.407,2.085-.217,3.008.271a15.883,15.883,0,0,1,2.824,4.829c6.491,9.658,14.355,17.362,20.926,26.532,1.267.76.66,2.713,1.214,3.717.528,2.414.739,4.965,1.082,7.3,1.082,4.829-1,9.387-.66,14.27,0,0-1.082,11.1-1.742,16.142-1,4.069-.792,8.491-2.006,12.615-.528,2.55-1.478,5.426-2.005,8,.211,1.167-.95,1.926-.607,3.364a19.6,19.6,0,0,0,4.169,2.062c25.53-44.252,11.334-101.4-31.71-127.651A88.914,88.914,0,0,0,103.206,3.044ZM59.218,19.728c1.135-.678,2.137.543,3.219.76a17.022,17.022,0,0,1,1.953,5.019c1.082,1.655-.264,3.31-.264,5.182-.528,1.248-1.346,2.469-1.953,3.581-1.214.624-2.269,1.872-3.694.977-.4.136-1.4-.353-1.61-.353-1.267-.977-3.747-.488-3.879-2.713-.264-3.174-2.005-5.643-2.269-8.817C52.462,20.271,56.684,21.247,59.218,19.728Zm4.169,114.483a47.153,47.153,0,0,0-2.955,6.484c0,.624-.607.543-1,.814a1.807,1.807,0,0,1-1.61.814c-1.135-.624-2.137.407-3.14-.543a10.729,10.729,0,0,1-2.48-5.019c-.871-2.9.211-5.643.475-8.491a24.678,24.678,0,0,1,2.085-5.019c.343-.814.528-1.736,1.478-2.062.4-.353.871-.271,1.214-.488,1.267,0,2.639-.977,3.879.488.211.814.871,1.167,1.267,2.008a72,72,0,0,1,1.742,7.569A20.938,20.938,0,0,0,63.387,134.211Zm76.894-58.164.343.271c1.689.814,3.351.9,5.04,1.655a7.491,7.491,0,0,1,4.486,4.124c.343,1.736.4,3.717.607,5.426,0,2.713,2.085,7.379-1.953,8.627a13.631,13.631,0,0,1-5.832-1.926,6.9,6.9,0,0,1-2.639-1.736c-2.955-1.519-2.349-5.236-3.615-7.786-.132-1.791-.528-3.717-.792-5.589a3.945,3.945,0,0,1,.528-2.279A3.571,3.571,0,0,1,140.281,76.047Z" transform="translate(-2.349 -2.42)" fill="#fff"/>
</svg>
