<svg xmlns="http://www.w3.org/2000/svg" width="15" height="14" viewBox="0 0 15 13.696">
  <g id="Groupe_378" data-name="Groupe 378" transform="translate(-4 -8)">
    <path id="Tracé_472" data-name="Tracé 472" d="M4.489,8A.489.489,0,0,0,4,8.489V21.207a.489.489,0,0,0,.489.489H18.511a.489.489,0,1,0,0-.978H4.978V8.489A.489.489,0,0,0,4.489,8Zm9.783,2.772a.528.528,0,0,0-.515.515.509.509,0,0,0,.515.464h1.381l-4.336,4.076-1.559-1.3a.487.487,0,0,0-.7-.046L5.793,17.416a.489.489,0,1,0,.652.729L9.4,15.49,10.965,16.8a.51.51,0,0,0,.708.036L16.391,12.4V13.87a.489.489,0,1,0,.978,0V11.261a.508.508,0,0,0-.489-.489Z" fill="#575757"/>
  </g>
</svg>
