<svg xmlns="http://www.w3.org/2000/svg" width="16" height="16" viewBox="0 0 16 16">
  <g id="Groupe_444" data-name="Groupe 444" transform="translate(-518 -258)">
    <circle id="Ellipse_46" data-name="Ellipse 46" cx="8" cy="8" r="8" transform="translate(518 258)" fill="#f4f4f6"/>
    <g id="Groupe_442" data-name="Groupe 442" transform="translate(439 182)">
      <path id="Tracé_479" data-name="Tracé 479" d="M90.506,80.921H89.26V79.763A.763.763,0,0,0,88.5,79H85.333a.763.763,0,0,0-.763.763v1.158H83.325A1.34,1.34,0,0,0,82,82.263v2.881a1.34,1.34,0,0,0,1.325,1.342h.681v1.751a.763.763,0,0,0,.763.763h4.294a.763.763,0,0,0,.763-.763V86.486h.681a1.34,1.34,0,0,0,1.325-1.342V82.263A1.34,1.34,0,0,0,90.506,80.921Zm-5.54-1.158a.367.367,0,0,1,.367-.367H88.5a.367.367,0,0,1,.367.367v1.158h-3.9Zm4.463,8.475a.366.366,0,0,1-.367.367H84.768a.367.367,0,0,1-.367-.367v-3.7h5.028Zm1.076-2.147h-.681V84.328a.187.187,0,0,0-.2-.186H84.2a.189.189,0,0,0-.2.186V86.09h-.681a.943.943,0,0,1-.929-.946V82.263a.943.943,0,0,1,.929-.946H90.5a.943.943,0,0,1,.929.946v2.881h0A.943.943,0,0,1,90.506,86.09Z" fill="#3305d4"/>
      <rect id="Rectangle_2176" data-name="Rectangle 2176" width="0.565" height="0.359" transform="translate(83.819 82.459)" fill="#3305d4"/>
    </g>
  </g>
</svg>
