<svg xmlns="http://www.w3.org/2000/svg" width="14" height="15" viewBox="0 0 14.23 14.879">
  <path id="Tracé_476" data-name="Tracé 476" d="M12.149,4a1.14,1.14,0,0,0-1.132,1.132v.713A5.947,5.947,0,0,0,9.268,6.9l-.642-.354a1.143,1.143,0,0,0-1.542.44l-.94,1.7a1.142,1.142,0,0,0,.435,1.542l.642.359a5.96,5.96,0,0,0-.086.859,5.909,5.909,0,0,0,.091.859l-.647.359a1.136,1.136,0,0,0-.435,1.536l.94,1.7a1.144,1.144,0,0,0,1.542.445l.647-.359a5.935,5.935,0,0,0,1.744,1.051v.718a1.14,1.14,0,0,0,1.132,1.132H14.09a1.14,1.14,0,0,0,1.132-1.132v-.718a5.937,5.937,0,0,0,1.744-1.051l.647.359a1.144,1.144,0,0,0,1.541-.445l.94-1.7a1.136,1.136,0,0,0-.435-1.536l-.647-.359a5.887,5.887,0,0,0,.091-.859,5.983,5.983,0,0,0-.086-.859l.642-.359a1.142,1.142,0,0,0,.435-1.542l-.94-1.7a1.143,1.143,0,0,0-1.541-.44l-.642.354a5.94,5.94,0,0,0-1.749-1.051V5.132A1.14,1.14,0,0,0,14.09,4Zm0,.97H14.09a.152.152,0,0,1,.162.162V6.183a.5.5,0,0,0,.344.46,5,5,0,0,1,2,1.183.5.5,0,0,0,.576.076l.92-.51a.148.148,0,0,1,.217.061l.94,1.7a.153.153,0,0,1-.061.222l-.92.51a.5.5,0,0,0-.237.521,5.087,5.087,0,0,1,0,2.067.5.5,0,0,0,.237.526l.92.51a.148.148,0,0,1,.061.217l-.94,1.7a.15.15,0,0,1-.217.066l-.92-.51a.5.5,0,0,0-.576.071,5,5,0,0,1-2,1.183.5.5,0,0,0-.344.465v1.051a.152.152,0,0,1-.162.162H12.149a.152.152,0,0,1-.162-.162V16.7a.5.5,0,0,0-.344-.465,5,5,0,0,1-2-1.183.5.5,0,0,0-.576-.071l-.92.51a.15.15,0,0,1-.217-.066l-.94-1.7a.148.148,0,0,1,.061-.217l.92-.51a.5.5,0,0,0,.238-.526,5.087,5.087,0,0,1,0-2.067.5.5,0,0,0-.238-.521l-.92-.51a.153.153,0,0,1-.061-.222l.94-1.7a.148.148,0,0,1,.217-.061l.92.51a.5.5,0,0,0,.576-.076,5,5,0,0,1,2-1.183.5.5,0,0,0,.344-.46V5.132A.152.152,0,0,1,12.149,4.97Zm.97,3.073a3.4,3.4,0,1,0,3.4,3.4A3.4,3.4,0,0,0,13.12,8.043Zm0,.97a2.426,2.426,0,1,1-2.426,2.426A2.418,2.418,0,0,1,13.12,9.013Z" transform="translate(-6.004 -4)" fill="#575757"/>
</svg>
